PathFileType	4	(X/Y/Z)	OpenSim_Sub06_CSBaseline_Accel.trc
DataRate	CameraRate	NumFrames	NumMarkers	Units	OrigDataRate	OrigDataStartFrame	OrigNumFrames
100	100	17	8	m	100	1062	8492
Frame#	Time	torso_imu_offset_imu	pelvis_imu_offset_imu	tibia_r_imu_offset_imu	femur_r_imu_offset_imu	tibia_l_imu_offset_imu	femur_l_imu_offset_imu	toes_r_imu_offset_imu	toes_l_imu_offset_imu
				X1	Y1	Z1	X2	Y2	Z2	X3	Y3	Z3	X4	Y4	Z4	X5	Y5	Z5	X6	Y6	Z6	X7	Y7	Z7	X8		Y8	Z8	

1062	10.61000000	9.48956605	1.49701711	5.22998046	8.33481472	-0.46823264	6.79552500	13.04730287	5.48113623	0.34402939	10.23567493	-1.03930481	2.15580430	9.36990999	-1.22294450	-0.30451385	12.84107424	-0.47664345	-6.83367821	9.27548553	-6.89363049	9.48655307	5.03022703	1.16391868	11.51471969
1063	10.62000000	9.15693770	1.49904062	5.02125856	8.51009190	-1.91520366	6.70603601	11.24671378	6.87931564	0.95521391	10.44878315	-0.40469639	2.74594895	10.57036278	-0.44530520	1.24389434	11.81591107	0.20183814	-4.53697584	11.10947304	-9.25642073	8.15960239	4.53804847	0.91797104	11.63970913
1064	10.63000000	8.80526290	1.64439258	4.83625757	8.35834519	-2.73977805	6.72255877	8.67375564	7.26414906	1.21256193	11.43480441	-0.05737530	3.22302605	10.51815149	-1.48462789	2.89664732	10.36342972	1.96929178	-1.95310491	8.37868896	-9.50214682	6.35543301	4.52614557	0.28591032	11.58944791
1065	10.64000000	8.60661232	1.89322053	4.64848983	8.02478202	-3.01699724	6.82490498	6.32081368	6.68745239	0.64031114	11.82747546	0.46307414	3.08158122	10.19299171	0.83947585	4.01853049	10.05881266	2.68055426	-0.99415235	7.97455589	-6.20460906	5.81898711	4.89229925	0.14347251	11.61268800
1066	10.65000000	8.58719335	2.13285177	4.66533503	7.89556572	-2.82166672	6.72387937	4.86467670	5.99995113	0.61615274	11.87636894	1.07387181	3.00787496	9.18720597	2.31198870	4.39028038	10.71746847	3.06875047	-0.66139231	7.91620625	-1.67002212	10.09122141	4.61335500	-0.44228934	11.53806812
1067	10.66000000	8.45344134	2.17576134	4.82134911	7.82351001	-2.39804479	6.31632481	4.27356998	6.10954372	0.98868730	10.67257409	1.34406499	2.55398688	8.96718764	0.16241270	3.90959005	10.43867517	3.00034678	-0.73775943	19.63070050	-4.65414246	19.36338963	4.89979587	-1.06135589	11.59475943
1068	10.67000000	8.54730685	2.06649884	4.96160425	7.83505340	-2.03666919	5.90516152	4.68977895	7.57337777	1.56510574	10.51146179	1.62817373	2.22609652	9.54083956	-2.31575307	3.00169294	9.79233702	2.71376511	-0.92240350	20.31793666	-12.64772803	19.51372157	4.36980229	-0.44445379	11.66862894
1069	10.68000000	8.71290268	1.94026967	4.94102605	7.78648559	-1.83035777	5.71198170	5.28679382	8.61854991	1.44782040	10.63464452	1.46811612	1.90513395	9.93999217	-3.30080465	1.52149780	8.89857246	1.78475517	-1.33896598	0.91421175	-13.38743092	10.72920387	4.58431398	0.10073264	11.55243390
1070	10.69000000	9.10965482	1.79147396	4.93275289	7.61857890	-1.59346188	5.71898322	5.90191827	8.46006139	1.98982955	10.62887860	1.04218954	1.38849241	10.21791780	-3.03875564	0.79239760	8.48549191	0.70764481	-2.14086162	-5.39854718	-11.85524680	6.14348327	4.48821699	0.46435577	11.58586615
1071	10.70000000	9.37321199	1.50771467	4.97591216	7.37985662	-1.39361688	5.78287296	6.24592679	7.83906672	2.67277719	10.78388155	0.39984933	1.11087815	10.30417189	-3.04350490	0.33350399	8.13080135	0.04854374	-2.22938120	-2.85993662	-7.72977936	6.86736478	5.04886141	1.00600700	11.36201366
1072	10.71000000	9.40863525	1.11605575	4.83352757	7.43377983	-1.29365831	5.76974305	5.81034570	7.10177770	3.67610682	10.20440318	-0.45350594	1.23918094	10.16909010	-3.00699634	0.24377727	8.69383634	-0.29304207	-2.92557426	-0.67788596	-4.12606161	8.49793071	4.82757113	0.95515813	11.46569157
1073	10.72000000	9.36671132	0.96667541	4.75838053	7.58177446	-1.24161319	5.78964437	4.92180618	6.22661742	4.08181104	9.94509089	-0.95712326	1.34194772	10.04220734	-2.56979798	0.37203898	9.66929839	-0.45493077	-4.07000495	0.64186057	-2.12430527	9.92104371	4.77585179	0.76018443	11.36455433
1074	10.73000000	9.35686790	1.04442768	4.82007521	7.86292577	-1.12967833	5.71642883	3.86110236	5.26989791	3.93726474	9.68375906	-1.46367309	1.44011996	9.75091293	-1.77137748	0.71634658	9.41852655	0.21123421	-4.27663451	0.86211033	-1.79300732	10.43878914	5.36502479	1.21925460	11.21312214
1075	10.74000000	9.39553492	1.17684648	4.71883400	7.87856610	-1.10046193	5.65123414	2.94838785	4.53049483	3.83592538	9.53129925	-1.60515727	1.62490861	9.75916116	-0.94277470	0.89305310	9.33394379	0.17820322	-4.00405695	0.10919356	-1.77828368	10.07454761	5.09235755	0.67617927	11.12210905
1076	10.75000000	9.42648238	1.27189288	4.81299598	7.84032329	-1.16466454	5.41451591	2.47742661	4.13555594	3.68010277	9.89921305	-1.53137565	1.70208370	9.90957574	-0.88932759	1.12302633	9.14187847	-0.10097004	-3.38483749	-0.20727913	-1.19870223	9.97261472	5.54104075	0.56834209	11.06163424
1077	10.76000000	9.26834105	1.25385503	4.94131684	7.80899886	-1.12634068	5.18275576	2.45409053	4.30797986	3.32495865	9.32591105	-1.46458588	1.86019408	9.79896105	-1.11610525	1.30201065	9.05019588	-0.17993518	-3.46842119	0.44963342	-0.33600817	10.35208219	5.14873988	0.55684121	11.08895093
1078	10.77000000	8.91559516	1.17547785	5.04990610	7.76157315	-1.27194074	5.03178576	2.85561085	4.96332517	2.77281540	8.62307214	-1.52107933	2.03338853	9.50819920	-1.60334574	1.20333270	9.00947746	0.04918696	-3.26425462	1.28262406	0.23613213	10.64775595	5.29122886	0.59012931	11.08563508
